<?xml version="1.0" standalone="no"?>
<!DOCTYPE svg PUBLIC "-//W3C//DTD SVG 20010904//EN"
 "http://www.w3.org/TR/2001/REC-SVG-20010904/DTD/svg10.dtd">
<svg version="1.0" xmlns="http://www.w3.org/2000/svg"
 width="240.000000pt" height="240.000000pt" viewBox="0 0 240.000000 240.000000"
 preserveAspectRatio="xMidYMid meet">

<g transform="translate(0.000000,240.000000) scale(0.100000,-0.100000)"
fill="#000000" stroke="none">
<path d="M1140 2011 c-50 -16 -89 -42 -114 -73 -31 -42 -341 -576 -372 -643
-39 -82 -28 -171 28 -240 85 -103 248 -107 339 -8 39 41 386 645 399 693 35
129 -65 265 -202 275 -29 3 -64 1 -78 -4z"/>
<path d="M1490 1421 c-44 -14 -84 -38 -111 -68 -39 -41 -386 -645 -399 -693
-25 -91 21 -196 107 -247 92 -54 226 -31 287 49 31 42 341 576 372 643 68 144
-22 302 -182 319 -27 3 -60 2 -74 -3z"/>
</g>
</svg>
