<?xml version="1.0" encoding="UTF-8" standalone="no"?>
<svg
   xmlns:dc="http://purl.org/dc/elements/1.1/"
   xmlns:cc="http://creativecommons.org/ns#"
   xmlns:rdf="http://www.w3.org/1999/02/22-rdf-syntax-ns#"
   xmlns:svg="http://www.w3.org/2000/svg"
   xmlns="http://www.w3.org/2000/svg"
   viewBox="0 0 2829.3333 2829.3333"
   height="2829.3333"
   width="2829.3333"
   xml:space="preserve"
   id="svg2"
   version="1.1"><metadata
     id="metadata8"><rdf:RDF><cc:Work
         rdf:about=""><dc:format>image/svg+xml</dc:format><dc:type
           rdf:resource="http://purl.org/dc/dcmitype/StillImage" /></cc:Work></rdf:RDF></metadata><defs
     id="defs6" /><g
     transform="matrix(1.3333333,0,0,-1.3333333,0,2829.3333)"
     id="g10"><g
       transform="scale(0.1)"
       id="g12"><g
         transform="scale(1.18852)"
         id="g14"><path
           id="path16"
           style="fill:#fbc046;fill-opacity:1;fill-rule:nonzero;stroke:none"
           d="m 15793.6,14657.7 c 0,13.1 -0.7,26.1 -1.8,39.1 -0.4,4.1 -1,8.1 -1.5,12.2 -1,9 -2.2,17.9 -3.7,26.9 -0.8,4.7 -1.7,9.4 -2.7,14.1 -1.7,8.4 -3.7,16.9 -5.9,25.3 -1.2,4.6 -2.4,9.3 -3.7,13.9 -2.7,9.2 -5.8,18.4 -9,27.5 -1.3,3.7 -2.5,7.3 -3.8,11 -4.7,12.4 -10,24.7 -15.6,37 -1.9,4.1 -4.2,8.2 -6.2,12.4 -4.1,8.3 -8.3,16.7 -12.9,25 -2.9,5.4 -6.1,10.7 -9.2,16 -4.2,7.1 -8.5,14.1 -12.9,21.1 -3.6,5.7 -7.3,11.4 -11.2,17.1 -4.5,6.7 -9.3,13.3 -14.1,19.9 -4.2,5.8 -8.3,11.6 -12.7,17.3 -5.2,6.8 -10.8,13.6 -16.3,20.4 -8.8,10.8 -18.2,21.7 -27.7,32.4 -4.9,5.5 -9.6,10.9 -14.7,16.3 -6.6,7 -13.5,13.9 -20.3,20.9 -4.7,4.7 -9.3,9.5 -14.2,14.2 -7.3,7.2 -14.9,14.3 -22.5,21.5 -4.7,4.2 -9.3,8.5 -14,12.7 -8.4,7.6 -16.8,15.1 -25.7,22.6 -3.4,3 -7,5.9 -10.6,8.9 -33.8,28.4 -70.3,56.4 -109.7,84.1 -1.2,0.9 -2.5,1.9 -3.8,2.8 -12.9,9 -26.2,18 -39.7,27 -2.5,1.7 -5,3.3 -7.6,5 -13.8,9.1 -27.9,18.2 -42.3,27.2 -1.2,0.8 -2.3,1.5 -3.6,2.2 -931.7,581.6 -3067.7,988.3 -5554.19,988.3 -3343.42,0 -6053.79,-735.3 -6053.79,-1642.3 0,-42.7 6.04,-85 17.84,-126.9 -2.25,-218.9 -17.67,-1722.8 -17.84,-1991.4 -795.13,-277.9 -1268.76,-626.9 -1268.76,-1005.9 0,-42.8 6.04,-85.1 17.85,-127 -2.27,-220.1 -17.85,-1739.74 -17.85,-1995.92 0,-319.06 335.72,-616.82 916.01,-868.81 -6.27,-30.63 -9.75,-61.51 -9.75,-92.55 0,-42.66 6.04,-85.07 17.84,-126.97 -2.25,-218.84 -17.67,-1722.72 -17.84,-1991.29 -795.13,-277.99 -1268.76,-627 -1268.76,-1006.04 0,-42.65 6.04,-84.98 17.84,-126.88 -2.26,-220.1 -17.84,-1739.8 -17.84,-1996 0,-907.01 2710.37,-1642.2 6053.78,-1642.2 3343.36,0 6053.86,735.19 6053.86,1642.2 0,220.44 0,2017.88 0,2118.34 795.1,277.91 1268.7,626.91 1268.7,1005.95 0,226.5 0,2118.09 0,2122.8 v 0.09 c 0,13.12 -0.7,26.08 -1.8,39.12 -0.4,4.04 -1,8.08 -1.4,12.12 -1,9 -2.2,18 -3.8,26.92 -0.8,4.71 -1.8,9.42 -2.7,14.05 -1.7,8.5 -3.7,16.91 -5.9,25.33 -1.3,4.62 -2.4,9.34 -3.8,13.96 -2.6,9.18 -5.7,18.34 -8.9,27.43 -1.4,3.71 -2.4,7.41 -3.9,11.03 -4.6,12.36 -9.8,24.73 -15.5,37.02 -2,4.12 -4.2,8.24 -6.3,12.45 -4,8.33 -8.2,16.66 -12.8,24.99 -3,5.3 -6.1,10.68 -9.3,15.98 -4.1,7.07 -8.3,14.05 -12.8,21.04 -3.7,5.72 -7.4,11.44 -11.3,17.16 -4.4,6.65 -9.1,13.21 -13.9,19.86 -4.2,5.8 -8.4,11.61 -12.8,17.33 -5.1,6.82 -10.8,13.55 -16.3,20.28 -8.8,10.85 -18.1,21.71 -27.7,32.56 -4.9,5.39 -9.6,10.85 -14.7,16.24 -6.5,6.98 -13.4,13.97 -20.3,20.87 -4.6,4.79 -9.4,9.5 -14.2,14.21 -7.4,7.24 -14.9,14.39 -22.6,21.54 -4.5,4.21 -9.2,8.42 -13.9,12.62 -8.4,7.58 -16.9,15.15 -25.6,22.72 -3.5,2.86 -7,5.81 -10.5,8.75 -34,28.44 -70.6,56.63 -110.1,84.39 -1.2,0.84 -2.4,1.68 -3.5,2.53 -13,9.08 -26.4,18.09 -39.9,27.09 -2.5,1.68 -4.9,3.28 -7.4,4.96 -13.9,9.17 -28,18.26 -42.4,27.26 -1.2,0.76 -2.3,1.43 -3.5,2.19 -119.5,74.63 -259,146.4 -416.5,214.8 6.3,30.63 9.7,61.51 9.7,92.56 0,220.38 0,2017.82 0,2118.32 795.1,277.9 1268.8,626.9 1268.8,1005.9 0,226.5 0,2118.2 0,2122.8 0,0.1 0,0.1 0,0.1" /></g><g
         transform="scale(1.05909)"
         id="g18"><path
           id="path20"
           style="fill:#d67825;fill-opacity:1;fill-rule:nonzero;stroke:none"
           d="m 16299.8,12937.8 c -10.5,-1015.4 -3047.9,-1837.7 -6793.49,-1837.7 -3575.28,0 -6505.51,749.2 -6773.58,1700.5 -2.56,-247 -20.04,-1952.4 -20.04,-2239.9 0,-1017.85 3041.63,-1842.99 6793.62,-1842.99 3752.09,0 6793.69,825.14 6793.69,1842.99 0,247.1 0,2261 0,2377.1 0,3.5 0,5.3 0,5.3 l -0.2,-5.3" /></g><path
         id="path22"
         style="fill:#e6a033;fill-opacity:1;fill-rule:nonzero;stroke:none"
         d="m 5241.13,13971.8 c -220.27,110.6 -402.3,227.7 -541.29,349.9 -274.81,-148.4 -426.63,-310.8 -426.63,-481 0,-704.4 2594.44,-1275.4 5794.79,-1275.4 2116.6,0 3967.8,249.8 4979.1,622.7 -1029.3,-154.1 -2212.3,-241.9 -3471.1,-241.9 -2738.21,0 -5119,415 -6334.87,1025.7" /><path
         id="path24"
         style="fill:#a14515;fill-opacity:1;fill-rule:nonzero;stroke:none"
         d="M 9831.08,11757.1 V 9234.5 c 78.85,-0.7 157.49,-1.7 236.92,-1.7 36.2,0 71.8,0.6 107.8,0.8 v 2522.7 c -35.9,-0.1 -71.7,-0.4 -107.8,-0.4 -79.29,0 -158.2,0.5 -236.92,1.2" /><path
         id="path26"
         style="fill:#a14515;fill-opacity:1;fill-rule:nonzero;stroke:none"
         d="m 8204.65,9299.3 c 113.81,-8.3 228.72,-15.8 344.67,-22.5 v 2522.8 c -115.94,6.8 -230.88,14.3 -344.67,22.5 V 9299.3" /><path
         id="path28"
         style="fill:#a14515;fill-opacity:1;fill-rule:nonzero;stroke:none"
         d="m 6578.22,9477.8 c 113.18,-17.1 227.85,-33.5 344.67,-48.9 v 2523 c -116.75,15.4 -231.55,31.7 -344.67,48.8 V 9477.8" /><path
         id="path30"
         style="fill:#a14515;fill-opacity:1;fill-rule:nonzero;stroke:none"
         d="m 4951.79,9812.6 c 111.14,-30.5 226.37,-59.8 344.68,-88.3 v 2522.6 c -118.49,28.5 -233.37,58.1 -344.68,88.6 V 9812.6" /><path
         id="path32"
         style="fill:#a14515;fill-opacity:1;fill-rule:nonzero;stroke:none"
         d="m 3325.35,10502.7 c 99.55,-72.4 215.44,-142.6 344.68,-210.6 v 2522 c -129.67,68.2 -244.83,138.7 -344.68,211.3 v -2522.7" /><path
         id="path34"
         style="fill:#a14515;fill-opacity:1;fill-rule:nonzero;stroke:none"
         d="m 11457.5,9269.5 c 115.9,6.2 230.8,13.1 344.7,20.8 v 2522.9 c -113.9,-7.7 -228.8,-14.6 -344.7,-20.8 V 9269.5" /><path
         id="path36"
         style="fill:#a14515;fill-opacity:1;fill-rule:nonzero;stroke:none"
         d="m 13083.9,9412.6 c 116.6,14.6 231.6,30 344.7,46.2 v 2522.8 c -113.1,-16.2 -228,-31.6 -344.7,-46.3 V 9412.6" /><path
         id="path38"
         style="fill:#a14515;fill-opacity:1;fill-rule:nonzero;stroke:none"
         d="m 14710.4,9693.9 c 118.3,27.2 233,55.4 344.6,84.6 V 12301 c -111.4,-29.1 -226.4,-57.2 -344.6,-84.3 V 9693.9" /><g
         transform="scale(1.0234)"
         id="g40"><path
           id="path42"
           style="fill:#a14515;fill-opacity:1;fill-rule:nonzero;stroke:none"
           d="m 15963.2,9993.11 c 123.7,59.39 236.7,120.69 336.8,183.89 v 2465.2 c -100.3,-63.3 -212.9,-124.8 -336.8,-184.3 V 9993.11" /></g><g
         transform="scale(1.05907)"
         id="g44"><path
           id="path46"
           style="fill:#fddc68;fill-opacity:1;fill-rule:nonzero;stroke:none"
           d="m 9018.29,11302.5 c -2217.06,0 -4185.57,288.2 -5425.59,733.9 1166.91,-558.8 3377.21,-936.2 5913.72,-936.2 3745.68,0 6783.08,822.3 6793.58,1837.8 -200.1,-70 -418.3,-135.9 -652.7,-197.2 -680,-823.2 -3389.5,-1438.3 -6629.01,-1438.3" /></g><path
         id="path48"
         style="fill:#d07a22;fill-opacity:1;fill-rule:nonzero;stroke:none"
         d="m 4273.21,13840.7 c 0,-91.8 45.09,-181.3 128.92,-267.7 174.09,144.7 461.67,279.1 839,398.8 -220.27,110.6 -402.3,227.7 -541.29,349.9 -274.81,-148.4 -426.63,-310.8 -426.63,-481" /><g
         transform="scale(1.1516)"
         id="g50"><path
           id="path52"
           style="fill:#d67825;fill-opacity:1;fill-rule:nonzero;stroke:none"
           d="m 15794.9,14459.2 c -89.1,-56.2 -189.2,-110.9 -299.3,-163.8 -300.3,-144.2 -676.1,-275.3 -1113,-389.3 -96.8,-25.3 -196.7,-49.7 -299.3,-73.2 -341.6,-78.3 -714.5,-146.9 -1113,-204.1 -98.3,-14.1 -198.1,-27.5 -299.3,-40.2 -354.4,-44.5 -726.6,-80.2 -1113.1,-106.1 -98.8,-6.7 -198.6,-12.6 -299.2,-18 -360.9,-19.2 -732.9,-29.9 -1113.1,-31.4 -31.2,-0.1 -62.2,-0.3 -93.5,-0.3 -68.87,0 -137.38,0.4 -205.81,1 -380.6,3.4 -752.52,16 -1112.97,37 -100.72,5.8 -200.5,12.4 -299.33,19.5 -387.09,28.1 -759.4,66 -1113.02,112.7 -101.37,13.3 -201.09,27.5 -299.29,42.3 -400.05,60.3 -773.06,132.2 -1113.02,214 -102.83,24.7 -202.71,50.3 -299.3,76.8 -444.12,121.9 -820.68,261.9 -1113.03,415.6 -112.62,59.2 -212.6,120.4 -299.3,183.5 -200.63,145.8 -329.2,301.1 -374.4,462.8 -2.3,-222.4 -18.43,-1796.3 -18.43,-2061.3 0,-936 2797.27,-1694.9 6247.9,-1694.9 3450.6,0 6247.9,758.9 6247.9,1694.9 0,234.1 0,2191 0,2191 0,-237.4 -180.3,-463.3 -505.1,-668.5" /></g><path
         id="path54"
         style="fill:#a14515;fill-opacity:1;fill-rule:nonzero;stroke:none"
         d="m 11339,15470.4 v -2522.7 c 78.9,-0.7 157.5,-1.6 237,-1.6 36.1,0 71.7,0.6 107.7,0.8 v 2522.7 c -35.9,-0.1 -71.7,-0.4 -107.7,-0.4 -79.3,0 -158.2,0.5 -237,1.2" /><path
         id="path56"
         style="fill:#a14515;fill-opacity:1;fill-rule:nonzero;stroke:none"
         d="m 9712.59,13012.6 c 113.81,-8.3 228.72,-15.8 344.71,-22.5 v 2522.8 c -115.99,6.8 -230.9,14.3 -344.71,22.6 v -2522.9" /><path
         id="path58"
         style="fill:#a14515;fill-opacity:1;fill-rule:nonzero;stroke:none"
         d="m 8086.17,13191.1 c 113.19,-17.1 227.84,-33.5 344.67,-48.9 v 2523 c -116.74,15.4 -231.58,31.7 -344.67,48.7 v -2522.8" /><path
         id="path60"
         style="fill:#a14515;fill-opacity:1;fill-rule:nonzero;stroke:none"
         d="m 6459.74,13525.9 c 111.14,-30.5 226.38,-59.8 344.68,-88.3 v 2522.8 c -118.42,28.4 -233.44,57.9 -344.68,88.5 v -2523" /><g
         transform="scale(1.02691)"
         id="g62"><path
           id="path64"
           style="fill:#a14515;fill-opacity:1;fill-rule:nonzero;stroke:none"
           d="m 4706.62,13843.4 c 96.93,-70.5 209.79,-138.8 335.65,-205.1 v 2455.9 c -126.29,66.4 -238.42,135.1 -335.65,205.8 v -2456.6" /></g><path
         id="path66"
         style="fill:#a14515;fill-opacity:1;fill-rule:nonzero;stroke:none"
         d="m 12965.5,12982.8 c 115.9,6.2 230.8,13.1 344.6,20.8 v 2522.8 c -113.8,-7.6 -228.7,-14.5 -344.6,-20.7 v -2522.9" /><path
         id="path68"
         style="fill:#a14515;fill-opacity:1;fill-rule:nonzero;stroke:none"
         d="m 14591.9,13125.9 c 116.5,14.6 231.6,30 344.7,46.2 v 2522.8 c -113.2,-16.2 -228.1,-31.7 -344.7,-46.3 v -2522.7" /><g
         transform="scale(1.01613)"
         id="g70"><path
           id="path72"
           style="fill:#a14515;fill-opacity:1;fill-rule:nonzero;stroke:none"
           d="m 15960.8,13194.3 c 116.5,26.7 229.4,54.6 339.2,83.2 V 15760 c -109.7,-28.7 -222.9,-56.3 -339.2,-83 v -2482.7" /></g><g
         transform="scale(1.11591)"
         id="g74"><path
           id="path76"
           style="fill:#a14515;fill-opacity:1;fill-rule:nonzero;stroke:none"
           d="m 15991.1,12492.2 c 113.5,54.6 217.1,110.8 308.9,168.7 v 2260.8 c -91.9,-58.1 -195.2,-114.5 -308.9,-169.1 v -2260.4" /></g><g
         transform="scale(1.15518)"
         id="g78"><path
           id="path80"
           style="fill:#e6a033;fill-opacity:1;fill-rule:nonzero;stroke:none"
           d="m 15037.3,15195.9 c 0,-609.8 -2245.9,-1104.2 -5016.4,-1104.2 -2770.45,0 -5016.37,494.4 -5016.37,1104.2 0,609.8 2245.92,1104.1 5016.37,1104.1 2770.5,0 5016.4,-494.3 5016.4,-1104.1" /></g><g
         transform="scale(1.15518)"
         id="g82"><path
           id="path84"
           style="fill:#d07a22;fill-opacity:1;fill-rule:nonzero;stroke:none"
           d="m 5116.15,14964.1 c 568.5,472.5 2523.55,820.7 4848.86,820.7 2409.09,0 4420.89,-373.8 4904.79,-872.3 108.8,90.4 167.5,185.4 167.5,283.4 0,609.8 -2245.9,1104.1 -5016.4,1104.1 -2770.44,0 -5016.37,-494.3 -5016.37,-1104.1 0,-79.5 39.05,-157 111.62,-231.8" /></g><g
         transform="scale(1.1516)"
         id="g86"><path
           id="path88"
           style="fill:#fddc68;fill-opacity:1;fill-rule:nonzero;stroke:none"
           d="m 15041.8,16147.6 c 514.2,-246.2 809.3,-530.6 809.3,-833.9 0,-936 -2797.4,-1694.9 -6247.95,-1694.9 -2038.95,0 -3849.28,265.1 -4989.68,675 1073.16,-513.9 3105.87,-861 5438.63,-861 3450.6,0 6247.9,758.8 6247.9,1694.9 0,383 -468.7,736.1 -1258.2,1019.9" /></g><g
         transform="scale(1.03926)"
         id="g90"><path
           id="path92"
           style="fill:#e6a033;fill-opacity:1;fill-rule:nonzero;stroke:none"
           d="m 9687.63,8883.98 c -1428.65,0 -2756.18,117.49 -3858.78,318.59 946.46,-380.84 2783.72,-639.2 4895.25,-639.2 3079.4,0 5575.9,549.43 5575.9,1227.21 0,100.27 -55,197.65 -158,290.92 -148,-103.19 -328.5,-202 -538.4,-295.44 -1215.2,-540.86 -3410.1,-902.08 -5915.97,-902.08" /></g><g
         transform="scale(1.12517)"
         id="g94"><path
           id="path96"
           style="fill:#d67825;fill-opacity:1;fill-rule:nonzero;stroke:none"
           d="m 15783.1,8240.83 c -91.2,-57.59 -193.6,-113.49 -306.4,-167.62 -307.3,-147.62 -691.9,-281.82 -1139.1,-398.52 -99.1,-25.86 -201.3,-50.83 -306.3,-74.92 -349.7,-80.16 -731.3,-150.29 -1139.2,-208.86 -100.6,-14.49 -202.7,-28.17 -306.4,-41.23 -362.6,-45.42 -743.6,-81.95 -1139.1,-108.52 -101.2,-6.85 -203.4,-12.98 -306.4,-18.4 -369.3,-19.64 -750,-30.57 -1139.1,-32.17 -31.9,-0.09 -63.72,-0.27 -95.71,-0.27 -70.57,0 -140.7,0.35 -210.64,0.98 -389.54,3.46 -770.29,16.35 -1139.18,37.86 -103.06,5.95 -205.19,12.71 -306.34,20 -396.17,28.79 -777.25,67.45 -1139.17,115.27 -103.74,13.69 -205.81,28.17 -306.33,43.37 -409.44,61.68 -791.21,135.27 -1139.17,218.99 -105.24,25.33 -207.46,51.55 -306.33,78.66 -454.55,124.69 -839.95,267.96 -1139.17,425.26 -115.26,60.62 -217.6,123.36 -306.34,187.8 -205.35,149.31 -336.93,308.31 -383.19,473.71 -2.35,-227.53 -18.86,-1838.49 -18.86,-2109.65 0,-958.08 2862.99,-1734.76 6394.72,-1734.76 3531.61,0 6394.61,776.68 6394.61,1734.76 0,239.52 0,2242.43 0,2242.43 0,-242.99 -184.4,-474.24 -516.9,-684.17" /></g><path
         id="path98"
         style="fill:#a14515;fill-opacity:1;fill-rule:nonzero;stroke:none"
         d="M 10908.2,8091.4 V 5568.8 c 78.8,-0.7 157.5,-1.7 237,-1.7 36.1,0 71.7,0.6 107.7,0.8 v 2522.7 c -35.9,-0.1 -71.7,-0.3 -107.7,-0.3 -79.4,0 -158.3,0.4 -237,1.1" /><path
         id="path100"
         style="fill:#a14515;fill-opacity:1;fill-rule:nonzero;stroke:none"
         d="m 9281.75,5633.6 c 113.81,-8.2 228.72,-15.7 344.68,-22.5 V 8134 c -115.96,6.7 -230.87,14.3 -344.68,22.5 V 5633.6" /><path
         id="path102"
         style="fill:#a14515;fill-opacity:1;fill-rule:nonzero;stroke:none"
         d="m 7655.32,5812.1 c 113.19,-17.1 227.86,-33.5 344.68,-48.9 v 2523 c -116.73,15.4 -231.58,31.7 -344.68,48.8 V 5812.1" /><path
         id="path104"
         style="fill:#a14515;fill-opacity:1;fill-rule:nonzero;stroke:none"
         d="m 6028.89,6147 c 111.15,-30.5 226.38,-59.9 344.68,-88.4 v 2522.8 c -118.42,28.5 -233.43,58 -344.68,88.5 V 6147" /><path
         id="path106"
         style="fill:#a14515;fill-opacity:1;fill-rule:nonzero;stroke:none"
         d="m 4402.46,6837 c 99.55,-72.4 215.43,-142.5 344.68,-210.6 v 2522 c -129.69,68.2 -244.83,138.8 -344.68,211.3 V 6837" /><path
         id="path108"
         style="fill:#a14515;fill-opacity:1;fill-rule:nonzero;stroke:none"
         d="m 12534.6,5603.9 c 115.9,6.1 230.8,13 344.7,20.7 v 2522.9 c -113.9,-7.7 -228.8,-14.6 -344.7,-20.7 V 5603.9" /><path
         id="path110"
         style="fill:#a14515;fill-opacity:1;fill-rule:nonzero;stroke:none"
         d="m 14161,5746.9 c 116.6,14.6 231.6,30 344.7,46.2 V 8316 c -113.1,-16.3 -228,-31.7 -344.7,-46.4 V 5746.9" /><path
         id="path112"
         style="fill:#a14515;fill-opacity:1;fill-rule:nonzero;stroke:none"
         d="m 15787.5,6028.3 c 118.3,27.1 233.1,55.4 344.7,84.5 v 2522.5 c -111.5,-29.1 -226.5,-57.2 -344.7,-84.3 V 6028.3" /><g
         transform="scale(1.08948)"
         id="g114"><path
           id="path116"
           style="fill:#a14515;fill-opacity:1;fill-rule:nonzero;stroke:none"
           d="m 15983.6,6022.39 c 116.2,55.81 222.4,113.35 316.4,172.74 v 2315.59 c -94.2,-59.48 -199.9,-117.21 -316.4,-173.11 V 6022.39" /></g><g
         transform="scale(1.03926)"
         id="g118"><path
           id="path120"
           style="fill:#d07a22;fill-opacity:1;fill-rule:nonzero;stroke:none"
           d="m 16113.7,9475.65 c 121.1,100.55 186.3,206.01 186.3,314.93 0,100.27 -55,197.65 -158,291.02 -148,-103.29 -328.5,-202.1 -538.4,-295.54 229.7,-96.6 403.7,-200.81 510.1,-310.41" /></g><g
         transform="scale(1.12517)"
         id="g122"><path
           id="path124"
           style="fill:#fddc68;fill-opacity:1;fill-rule:nonzero;stroke:none"
           d="m 15332.3,9842.55 c -3,-14.4 -6.6,-28.71 -10.8,-43.01 333.1,-209.93 519,-441 519,-684.17 0,-957.99 -2862.9,-1734.68 -6394.69,-1734.68 -2086.8,0 -3939.68,271.25 -5106.86,690.83 1098.36,-526.05 3178.84,-881.2 5566.44,-881.2 3531.61,0 6394.61,776.6 6394.61,1734.68 0,337.02 -354.8,651.37 -967.7,917.55" /></g><path
         id="path126"
         style="fill:#e6a033;fill-opacity:1;fill-rule:nonzero;stroke:none"
         d="m 4269,6942.7 c -274.82,-148.4 -426.63,-310.8 -426.63,-481 0,-704.4 2594.43,-1275.4 5794.83,-1275.4 2116.6,0 3967.8,249.8 4979.1,622.7 -1029.3,-154.1 -2212.4,-241.9 -3471.1,-241.9 -3234.3,0 -5969.97,579 -6876.2,1375.6" /><g
         transform="scale(1.03266)"
         id="g128"><path
           id="path130"
           style="fill:#d67825;fill-opacity:1;fill-rule:nonzero;stroke:none"
           d="m 15736.7,5383.2 c -99.4,-62.65 -210.9,-123.66 -333.7,-182.63 -335,-160.85 -754,-307.07 -1241.3,-434.22 -107.9,-28.18 -219.3,-55.39 -333.8,-81.64 -380.8,-87.34 -796.8,-163.75 -1241.1,-227.57 -109.7,-15.78 -220.9,-30.69 -333.8,-44.83 -395.2,-49.58 -810.3,-89.38 -1241.3,-118.33 -110.2,-7.36 -221.5,-14.14 -333.7,-20.05 -402.5,-21.4 -817.22,-33.31 -1241.26,-34.96 -34.76,-0.19 -69.43,-0.39 -104.3,-0.39 -76.82,0 -153.24,0.49 -229.47,1.16 -424.45,3.68 -839.24,17.73 -1241.23,41.16 -112.3,6.59 -223.57,13.85 -333.78,21.79 -431.66,31.38 -846.87,73.6 -1241.21,125.6 -113.04,15.01 -224.26,30.7 -333.77,47.26 -446.12,67.3 -862.09,147.38 -1241.22,238.6 -114.67,27.6 -226.05,56.17 -333.78,85.71 -495.26,135.86 -915.2,291.96 -1241.22,463.46 -125.59,65.95 -237.09,134.31 -333.78,204.62 -223.74,162.59 -367.12,335.83 -417.53,516.04 -2.56,-247.9 -20.55,-2003.18 -20.55,-2298.63 0,-1043.91 3119.47,-1890.07 6967.54,-1890.07 3848.06,0 6967.56,846.16 6967.56,1890.07 0,260.98 0,2443.31 0,2443.31 0,-264.66 -201,-516.63 -563.3,-745.46" /></g><path
         id="path132"
         style="fill:#a14515;fill-opacity:1;fill-rule:nonzero;stroke:none"
         d="M 9400.24,4378.2 V 1855.5 c 78.85,-0.7 157.49,-1.6 236.97,-1.6 36.12,0 71.7,0.6 107.7,0.7 v 2522.8 c -35.89,-0.2 -71.7,-0.4 -107.71,-0.4 -79.33,0 -158.24,0.5 -236.96,1.2" /><path
         id="path134"
         style="fill:#a14515;fill-opacity:1;fill-rule:nonzero;stroke:none"
         d="m 7773.8,1920.3 c 113.81,-8.2 228.72,-15.7 344.68,-22.5 v 2522.9 c -115.97,6.8 -230.87,14.3 -344.68,22.5 V 1920.3" /><path
         id="path136"
         style="fill:#a14515;fill-opacity:1;fill-rule:nonzero;stroke:none"
         d="m 6147.38,2098.8 c 113.18,-17.1 227.84,-33.5 344.67,-48.9 v 2523 c -116.73,15.5 -231.58,31.7 -344.67,48.8 V 2098.8" /><path
         id="path138"
         style="fill:#a14515;fill-opacity:1;fill-rule:nonzero;stroke:none"
         d="m 4520.95,2433.7 c 111.14,-30.5 226.38,-59.9 344.68,-88.3 v 2522.7 c -118.42,28.5 -233.43,58 -344.68,88.5 V 2433.7" /><path
         id="path140"
         style="fill:#a14515;fill-opacity:1;fill-rule:nonzero;stroke:none"
         d="m 2894.52,3123.7 c 99.53,-72.4 215.42,-142.5 344.67,-210.6 v 2522.1 c -129.69,68.1 -244.83,138.7 -344.67,211.3 V 3123.7" /><path
         id="path142"
         style="fill:#a14515;fill-opacity:1;fill-rule:nonzero;stroke:none"
         d="m 11026.7,1890.6 c 115.9,6.1 230.8,13.1 344.6,20.7 v 2522.9 c -113.8,-7.6 -228.7,-14.6 -344.6,-20.7 V 1890.6" /><path
         id="path144"
         style="fill:#a14515;fill-opacity:1;fill-rule:nonzero;stroke:none"
         d="m 12653.1,2033.6 c 116.6,14.7 231.6,30 344.7,46.2 v 2522.9 c -113.2,-16.3 -228.1,-31.7 -344.7,-46.3 V 2033.6" /><path
         id="path146"
         style="fill:#a14515;fill-opacity:1;fill-rule:nonzero;stroke:none"
         d="m 14279.5,2315 c 118.4,27.1 233.1,55.4 344.7,84.5 V 4922 c -111.5,-29.1 -226.5,-57.2 -344.7,-84.3 V 2315" /><path
         id="path148"
         style="fill:#a14515;fill-opacity:1;fill-rule:nonzero;stroke:none"
         d="m 15906,2848 c 126.5,60.9 242.2,123.6 344.6,188.2 V 5559 C 16148,5494.3 16032.8,5431.3 15906,5370.4 V 2848" /><g
         transform="scale(1.03264)"
         id="g150"><path
           id="path152"
           style="fill:#fddc68;fill-opacity:1;fill-rule:nonzero;stroke:none"
           d="m 8831.94,4446.09 c -2273.82,0 -4292.72,295.55 -5564.49,752.73 1196.78,-573.09 3463.67,-960.16 6065.16,-960.16 3841.49,0 6956.69,843.37 6967.39,1884.78 -205.2,-71.76 -428.9,-139.35 -669.4,-202.3 C 14933.3,5077 12154.4,4446.09 8831.94,4446.09" /></g><path
         id="path154"
         style="fill:#d07a22;fill-opacity:1;fill-rule:nonzero;stroke:none"
         d="m 3842.37,6461.8 c 0,-91.9 45.09,-181.4 128.92,-267.8 174.1,144.7 461.67,279.1 839,398.8 -220.27,110.7 -402.3,227.7 -541.29,349.9 -274.82,-148.4 -426.63,-310.8 -426.63,-480.9" /></g></g></svg>